:SAMPLES-PER-SECOND 30
:FULLY-SPECIFIED
:DEGREES
80
root  -0.268769 40.3124 -8.53537 -7.63678 -86.7505 3.96997
RightUpLeg  -18.5013 -7.20197 -2.24663
RightLeg  3.55156 -11.6202 3.41629
RightFoot  -4.70077 -0.304739 4.74967
RightToes  1.74622e-010 0 -3.6325e-017
Spine  9.69378 -2.66328 -2.58598
Spine1  5.71518 -4.17964 5.09634
HEad  -6.59003 4.11587 -1.45095
LeftShoulder1  7.36258 -11.794 -41.7675
LeftArm  -2.29989 8.77373 -28.1296
LeftForeArm  -179.856 -66.5559 -158.599
LeftHand  -0.244104 0.0205437 5.32207
RightShoulder  5.44314 9.59175 35.5958
RightArm  12.9156 -31.3232 18.5579
RightForeArm  40.4665 75.9998 47.7167
RightHand  0.247379 -8.78909 -9.52393
LeftUpLeg  12.874 7.16327 -2.65872
LeftLeg  11.6263 8.83566 -3.2065
LeftFoot  -8.82313 0.0251325 1.20134
LeftToes  -5.82109e-011 8.55049e-011 -1.09726e-011
81
root  -2.39401 40.021 -8.55767 -14.0391 -85.4971 9.7417
RightUpLeg  -16.998 -5.32933 -3.08949
RightLeg  -2.12628 -12.4191 5.70911
RightFoot  -6.72811 -0.290622 5.98263
RightToes  1.74622e-010 0 -3.6325e-017
Spine  9.04432 -3.35568 -3.94893
Spine1  6.23198 -5.19155 5.85716
HEad  -6.68991 4.21634 -1.08225
LeftShoulder1  7.30196 -12.2002 -40.2335
LeftArm  -1.3079 4.20236 -26.5451
LeftForeArm  179.069 -67.1313 -157.889
LeftHand  -0.244104 0.0205437 5.32207
RightShoulder  5.13801 9.50271 33.5562
RightArm  12.8417 -34.3424 17.6389
RightForeArm  40.0037 75.3805 44.2923
RightHand  0.23125 -9.26801 -8.00771
LeftUpLeg  16.3807 9.11408 -1.38563
LeftLeg  13.1951 5.17089 -3.15513
LeftFoot  -8.92619 0.0649099 -0.573699
LeftToes  -5.82109e-011 8.55049e-011 -1.09726e-011
82
root  -4.51485 39.576 -8.58196 -16.5777 -84.541 11.6309
RightUpLeg  -16.9828 -5.05251 -2.54018
RightLeg  0.0215853 -10.3414 4.6357
RightFoot  -6.5165 -0.278295 5.65584
RightToes  1.74622e-010 0 -3.6325e-017
Spine  8.27036 -3.77686 -4.37797
Spine1  7.06584 -5.81631 6.14785
HEad  -6.69779 3.96737 -0.81037
LeftShoulder1  7.21812 -12.2847 -39.4952
LeftArm  -0.730485 -0.734231 -25.0509
LeftForeArm  175.671 -69.7081 -154.476
LeftHand  -0.244104 0.0205437 5.32207
RightShoulder  4.78305 9.11407 31.9629
RightArm  12.2219 -36.6685 17.3315
RightForeArm  32.7044 73.3507 37.7106
RightHand  0.265474 -9.83548 -7.95316
LeftUpLeg  19.7203 12.6659 0.736229
LeftLeg  15.5429 0.49773 -2.38336
LeftFoot  -9.79501 0.0926204 -2.85557
LeftToes  -5.82109e-011 8.55049e-011 -1.09726e-011
83
root  -6.63702 39.0552 -8.54913 -8.38141 -84.1031 2.88745
RightUpLeg  -18.3854 -6.4172 -0.20311
RightLeg  7.13975 -8.61691 2.60533
RightFoot  -2.00717 -0.0648693 1.00766
RightToes  1.74622e-010 0 -3.6325e-017
Spine  7.57392 -4.30101 -2.49365
Spine1  7.60857 -6.18266 5.68102
HEad  -6.94358 3.76242 -0.691262
LeftShoulder1  7.10393 -11.9702 -39.6801
LeftArm  -0.708112 -4.47078 -24.1332
LeftForeArm  170.318 -73.5011 -147.637
LeftHand  -0.244104 0.0205437 5.32207
RightShoulder  4.48222 8.49435 31.4175
RightArm  11.2042 -37.5131 16.8395
RightForeArm  24.3644 69.6536 29.6955
RightHand  0.279831 -9.83785 -8.32134
LeftUpLeg  22.221 16.0952 4.27555
LeftLeg  19.2346 -3.81613 -1.45732
LeftFoot  -10.2891 0.125654 -6.64757
LeftToes  -5.82109e-011 8.55049e-011 -1.09726e-011
84
root  -8.71894 38.5569 -8.46969 11.5308 -83.8423 -17.5506
RightUpLeg  -20.8041 -11.7028 4.76917
RightLeg  16.1897 -3.57802 0.192347
RightFoot  3.24862 0.665503 -5.14285
RightToes  1.74622e-010 0 -3.6325e-017
Spine  7.32851 -4.93778 1.32419
Spine1  7.62116 -6.45323 5.0242
HEad  -7.92757 4.05801 -1.2342
LeftShoulder1  7.10889 -11.5259 -40.9892
LeftArm  -1.51052 -5.85758 -23.7925
LeftForeArm  161.709 -77.5405 -135.134
LeftHand  -0.244104 0.0205437 5.32207
RightShoulder  4.38097 7.97717 32.2191
RightArm  9.41366 -35.7282 16.2583
RightForeArm  17.8408 63.2264 21.3257
RightHand  0.203233 -8.57727 -8.60581
LeftUpLeg  21.9392 14.9466 7.57014
LeftLeg  26.3794 -2.92729 -1.16122
LeftFoot  -7.29562 0.440307 -10.7499
LeftToes  -5.82109e-011 8.55049e-011 -1.09726e-011
85
root  -10.6316 38.1352 -8.43659 32.3766 -82.892 -38.7274
RightUpLeg  -22.8439 -13.2814 8.6921
RightLeg  24.6582 -1.71962 -1.3102
RightFoot  3.27333 1.13993 -8.76819
RightToes  1.74622e-010 0 -3.6325e-017
Spine  7.61113 -5.38446 4.64674
Spine1  7.30569 -6.70705 5.5288
HEad  -9.45643 4.73749 -2.42464
LeftShoulder1  7.41011 -11.3766 -43.3025
LeftArm  -3.13921 -4.88808 -24.1911
LeftForeArm  141.888 -80.8607 -109.282
LeftHand  -0.244104 0.0205437 5.32207
RightShoulder  4.52351 7.85166 33.8843
RightArm  5.45609 -31.5065 16.8319
RightForeArm  14.8404 53.1768 13.943
RightHand  0.0880846 -6.95172 -8.53552
LeftUpLeg  17.8976 12.9354 10.5315
LeftLeg  37.5598 -0.761757 -0.221295
LeftFoot  1.38596 1.33395 -12.1994
LeftToes  -5.82109e-011 8.55049e-011 -1.09726e-011
86
root  -12.2485 37.852 -8.49236 42.3744 -81.257 -48.7406
RightUpLeg  -23.2135 -11.9336 10.5691
RightLeg  30.604 -3.29044 -2.34138
RightFoot  -1.66779 0.795286 -9.41721
RightToes  1.74622e-010 0 -3.6325e-017
Spine  8.25603 -5.56588 6.27273
Spine1  7.21396 -6.9216 7.43295
HEad  -10.8463 5.01002 -3.1203
LeftShoulder1  7.96497 -11.6594 -45.7945
LeftArm  -5.23046 -2.67816 -25.7025
LeftForeArm  103.705 -80.7075 -64.5477
LeftHand  -0.244104 0.0205437 5.32207
RightShoulder  4.91684 8.20405 36.0053
RightArm  -2.09299 -26.5202 18.9851
RightForeArm  15.4531 40.8947 8.66446
RightHand  -0.0069048 -5.58262 -8.75049
LeftUpLeg  10.7808 9.87291 11.8156
LeftLeg  49.8471 1.13484 1.88783
LeftFoot  11.087 1.9634 -10.2733
LeftToes  -5.82109e-011 8.55049e-011 -1.09726e-011
87
root  -13.7168 37.8671 -8.56644 42.1556 -80.0137 -48.5314
RightUpLeg  -21.524 -12.1795 11.3039
RightLeg  32.7377 -4.07038 -3.06779
RightFoot  -6.41239 0.332912 -8.73279
RightToes  1.74622e-010 0 -3.6325e-017
Spine  8.79807 -5.45895 6.94988
Spine1  7.53053 -6.70911 8.62906
HEad  -11.8271 4.2303 -2.31698
LeftShoulder1  8.50935 -12.1116 -47.5588
LeftArm  -7.16205 -0.595509 -28.0216
LeftForeArm  76.2792 -74.8908 -32.32
LeftHand  -0.244104 0.0205437 5.32207
RightShoulder  5.50339 8.84747 38.4882
RightArm  -12.6117 -22.2428 21.9634
RightForeArm  14.4466 29.6153 5.59897
RightHand  -0.156726 -3.9434 -10.9642
LeftUpLeg  2.98566 6.29529 11.1955
LeftLeg  60.1701 2.06429 4.45923
LeftFoot  14.0419 1.46398 -6.7947
LeftToes  -5.82109e-011 8.55049e-011 -1.09726e-011
